<svg width="1500" height="740" viewBox="0 0 1500 740" fill="none" xmlns="http://www.w3.org/2000/svg">
  <defs>
    <style>
      .t{font-family:Arial,Helvetica,sans-serif}
    </style>
    <marker id="arrow" viewBox="0 0 10 10" refX="8" refY="5" markerWidth="8" markerHeight="8" orient="auto-start-reverse">
      <path d="M0 0L10 5L0 10z" fill="#64748B"/>
    </marker>
  </defs>
  <rect width="1500" height="740" rx="24" fill="#0F172A"/>
  <text x="64" y="74" class="t" fill="#F8FAFC" font-size="34" font-weight="800">System Architecture</text>
  <text x="64" y="110" class="t" fill="#94A3B8" font-size="20">A modular cyber-physical stack for sensing, control, communication, and visualization.</text>

  <rect x="1080" y="150" width="310" height="120" rx="22" fill="#111827" stroke="#38BDF8" stroke-width="2"/>
  <text x="1142" y="202" class="t" fill="#E0F2FE" font-size="28" font-weight="800">Web Client</text>
  <text x="1138" y="236" class="t" fill="#CBD5E1" font-size="20">Dashboard · Charts · Alerts</text>

  <rect x="760" y="150" width="250" height="120" rx="22" fill="#111827" stroke="#F59E0B" stroke-width="2"/>
  <text x="835" y="202" class="t" fill="#FEF3C7" font-size="28" font-weight="800">ESP32</text>
  <text x="796" y="236" class="t" fill="#CBD5E1" font-size="20">WiFi / WebSocket bridge</text>

  <rect x="420" y="150" width="260" height="120" rx="22" fill="#111827" stroke="#22C55E" stroke-width="2"/>
  <text x="485" y="202" class="t" fill="#DCFCE7" font-size="28" font-weight="800">STM32 MCU</text>
  <text x="446" y="236" class="t" fill="#CBD5E1" font-size="20">Control, fusion, state machine</text>

  <line x1="1010" y1="210" x2="1080" y2="210" stroke="#64748B" stroke-width="4" marker-end="url(#arrow)"/>
  <text x="1025" y="192" class="t" fill="#94A3B8" font-size="18">WebSocket</text>
  <line x1="680" y1="210" x2="760" y2="210" stroke="#64748B" stroke-width="4" marker-end="url(#arrow)"/>
  <text x="705" y="192" class="t" fill="#94A3B8" font-size="18">UART</text>

  <rect x="94" y="380" width="220" height="110" rx="20" fill="#111827" stroke="#F97316" stroke-width="2"/>
  <text x="145" y="430" class="t" fill="#FFEDD5" font-size="28" font-weight="800">Flame Array</text>
  <text x="134" y="462" class="t" fill="#CBD5E1" font-size="18">Direction + intensity</text>

  <rect x="344" y="380" width="220" height="110" rx="20" fill="#111827" stroke="#A855F7" stroke-width="2"/>
  <text x="406" y="430" class="t" fill="#F3E8FF" font-size="28" font-weight="800">Smoke</text>
  <text x="394" y="462" class="t" fill="#CBD5E1" font-size="18">Air quality signal</text>

  <rect x="594" y="380" width="220" height="110" rx="20" fill="#111827" stroke="#06B6D4" stroke-width="2"/>
  <text x="652" y="430" class="t" fill="#CFFAFE" font-size="28" font-weight="800">DHT / Temp</text>
  <text x="629" y="462" class="t" fill="#CBD5E1" font-size="18">Environment sensing</text>

  <rect x="844" y="380" width="240" height="110" rx="20" fill="#111827" stroke="#84CC16" stroke-width="2"/>
  <text x="880" y="430" class="t" fill="#ECFCCB" font-size="28" font-weight="800">Ultrasonic</text>
  <text x="875" y="462" class="t" fill="#CBD5E1" font-size="18">Obstacle distance</text>

  <rect x="1114" y="380" width="270" height="110" rx="20" fill="#111827" stroke="#60A5FA" stroke-width="2"/>
  <text x="1170" y="430" class="t" fill="#DBEAFE" font-size="28" font-weight="800">OLED / Serial</text>
  <text x="1177" y="462" class="t" fill="#CBD5E1" font-size="18">Debug and local UI</text>

  <line x1="204" y1="380" x2="500" y2="270" stroke="#475569" stroke-width="3" marker-end="url(#arrow)"/>
  <line x1="454" y1="380" x2="540" y2="270" stroke="#475569" stroke-width="3" marker-end="url(#arrow)"/>
  <line x1="704" y1="380" x2="580" y2="270" stroke="#475569" stroke-width="3" marker-end="url(#arrow)"/>
  <line x1="964" y1="380" x2="620" y2="270" stroke="#475569" stroke-width="3" marker-end="url(#arrow)"/>
  <line x1="1248" y1="380" x2="650" y2="270" stroke="#475569" stroke-width="3" marker-end="url(#arrow)"/>

  <rect x="470" y="560" width="560" height="108" rx="24" fill="#111827" stroke="#38BDF8" stroke-width="2"/>
  <text x="635" y="606" class="t" fill="#E0F2FE" font-size="28" font-weight="800">Motion Layer</text>
  <text x="540" y="640" class="t" fill="#CBD5E1" font-size="20">Motor driver · PWM · encoder feedback · servo / pump / extinguisher interface</text>
  <line x1="550" y1="270" x2="750" y2="560" stroke="#64748B" stroke-width="4" marker-end="url(#arrow)"/>
</svg>
