<svg width="1600" height="820" viewBox="0 0 1600 820" fill="none" xmlns="http://www.w3.org/2000/svg">
  <defs>
    <linearGradient id="bg" x1="0" y1="0" x2="1600" y2="820" gradientUnits="userSpaceOnUse">
      <stop stop-color="#0B1220"/>
      <stop offset="1" stop-color="#111827"/>
    </linearGradient>
    <linearGradient id="accent" x1="240" y1="130" x2="1260" y2="690" gradientUnits="userSpaceOnUse">
      <stop stop-color="#22D3EE"/>
      <stop offset="0.55" stop-color="#60A5FA"/>
      <stop offset="1" stop-color="#F97316"/>
    </linearGradient>
    <filter id="glow" x="-30%" y="-30%" width="160%" height="160%">
      <feGaussianBlur stdDeviation="18" result="blur"/>
      <feMerge>
        <feMergeNode in="blur"/>
        <feMergeNode in="SourceGraphic"/>
      </feMerge>
    </filter>
  </defs>
  <rect width="1600" height="820" rx="28" fill="url(#bg)"/>
  <circle cx="1310" cy="170" r="210" fill="#0EA5E9" fill-opacity="0.12"/>
  <circle cx="250" cy="690" r="180" fill="#F97316" fill-opacity="0.12"/>
  <rect x="74" y="70" width="1452" height="680" rx="28" fill="#0F172A" stroke="#334155"/>

  <text x="120" y="170" fill="#E5E7EB" font-family="Arial, Helvetica, sans-serif" font-size="28" font-weight="700">FIRENEX</text>
  <text x="120" y="235" fill="#F8FAFC" font-family="Arial, Helvetica, sans-serif" font-size="66" font-weight="800">Autonomous Firefighting Robot Platform</text>
  <text x="120" y="290" fill="#CBD5E1" font-family="Arial, Helvetica, sans-serif" font-size="27">Embedded robotics · multi-sensor perception · real-time telemetry · web monitoring</text>

  <g>
    <rect x="120" y="345" width="220" height="54" rx="27" fill="#111827" stroke="#38BDF8"/>
    <text x="152" y="379" fill="#E0F2FE" font-family="Arial, Helvetica, sans-serif" font-size="22" font-weight="700">STM32 + ESP32</text>
    <rect x="356" y="345" width="246" height="54" rx="27" fill="#111827" stroke="#F97316"/>
    <text x="392" y="379" fill="#FFEDD5" font-family="Arial, Helvetica, sans-serif" font-size="22" font-weight="700">Fire Detection</text>
    <rect x="620" y="345" width="258" height="54" rx="27" fill="#111827" stroke="#22C55E"/>
    <text x="652" y="379" fill="#DCFCE7" font-family="Arial, Helvetica, sans-serif" font-size="22" font-weight="700">Web Dashboard</text>
  </g>

  <g transform="translate(950 210)">
    <rect x="0" y="0" width="470" height="390" rx="30" fill="#0B1220" stroke="#334155"/>
    <rect x="35" y="40" width="400" height="270" rx="24" fill="#111827" stroke="#1E293B"/>
    <rect x="70" y="78" width="250" height="18" rx="9" fill="#38BDF8" fill-opacity="0.85"/>
    <rect x="70" y="113" width="210" height="14" rx="7" fill="#64748B"/>
    <rect x="70" y="142" width="310" height="14" rx="7" fill="#334155"/>
    <rect x="70" y="185" width="135" height="85" rx="18" fill="#0F172A" stroke="#22C55E"/>
    <rect x="223" y="185" width="135" height="85" rx="18" fill="#0F172A" stroke="#F97316"/>
    <rect x="70" y="285" width="288" height="12" rx="6" fill="#475569"/>
    <text x="48" y="352" fill="#E2E8F0" font-family="Arial, Helvetica, sans-serif" font-size="22" font-weight="700">Live dashboard preview</text>
  </g>

  <g transform="translate(120 440)" filter="url(#glow)">
    <rect x="0" y="80" width="520" height="170" rx="28" fill="#0B1220" stroke="url(#accent)" stroke-width="3"/>
    <circle cx="116" cy="205" r="42" fill="#111827" stroke="#60A5FA" stroke-width="3"/>
    <circle cx="412" cy="205" r="42" fill="#111827" stroke="#60A5FA" stroke-width="3"/>
    <rect x="120" y="122" width="220" height="64" rx="18" fill="#111827" stroke="#38BDF8" stroke-width="3"/>
    <rect x="320" y="108" width="126" height="52" rx="14" fill="#111827" stroke="#F97316" stroke-width="3"/>
    <path d="M232 90C255 48 295 24 335 35C373 46 390 87 371 121C350 158 298 176 260 159C227 145 213 121 232 90Z" fill="#FB923C" fill-opacity="0.9"/>
    <path d="M285 93C300 66 322 59 340 67C356 74 361 97 348 118C336 136 310 144 292 137C276 131 270 113 285 93Z" fill="#FDE68A" fill-opacity="0.95"/>
    <text x="22" y="34" fill="#E2E8F0" font-family="Arial, Helvetica, sans-serif" font-size="30" font-weight="800">Physical robot platform</text>
    <text x="20" y="289" fill="#CBD5E1" font-family="Arial, Helvetica, sans-serif" font-size="22">Perception → Decision → Motion → Feedback</text>
  </g>

  <g>
    <text x="120" y="714" fill="#94A3B8" font-family="Arial, Helvetica, sans-serif" font-size="21">Replace this SVG with your real robot photo later, or keep it as a polished cover banner for the repository.</text>
  </g>
</svg>
